<svg width="963" height="900" viewBox="0 0 963 900" fill="none" xmlns="http://www.w3.org/2000/svg">
<g filter="url(#filter0_i_113_13276)">
<path fill-rule="evenodd" clip-rule="evenodd" d="M207.791 -60.8449C241.292 -51.8694 261.173 -17.4387 252.197 16.0583L220.016 136.144C211.039 169.641 176.605 189.52 143.103 180.544C109.602 171.569 89.7215 137.138 98.6981 103.641L130.879 -16.4448C139.856 -49.9418 174.29 -69.8203 207.791 -60.8449ZM111.249 299.413C144.75 308.389 164.631 342.819 155.654 376.316L123.473 496.402C114.497 529.899 80.0619 549.778 46.5609 540.802C13.0598 531.827 -6.82117 497.396 2.1554 463.899L34.3363 343.813C43.3129 310.316 77.7478 290.438 111.249 299.413ZM679.965 221.822C704.489 246.344 704.489 286.101 679.965 310.623L592.045 398.532C567.521 423.053 527.759 423.053 503.234 398.532C478.71 374.01 478.71 334.253 503.234 309.732L591.154 221.822C615.679 197.301 655.44 197.301 679.965 221.822ZM416.206 485.55C440.73 510.071 440.73 549.828 416.206 574.35L328.286 662.259C303.761 686.78 263.999 686.78 239.475 662.259C214.95 637.737 214.95 597.98 239.475 573.459L327.395 485.55C351.919 461.028 391.681 461.028 416.206 485.55ZM916.439 769.137C949.94 760.162 969.821 725.731 960.845 692.234C951.868 658.737 917.433 638.858 883.932 647.834L763.831 680.011C730.33 688.986 710.449 723.417 719.426 756.914C728.402 790.411 762.837 810.289 796.338 801.314L916.439 769.137ZM556.137 865.668C589.638 856.692 609.519 822.262 600.542 788.765C591.566 755.268 557.131 735.389 523.63 744.365L403.529 776.542C370.028 785.517 350.147 819.948 359.124 853.445C368.1 886.942 402.535 906.82 436.036 897.845L556.137 865.668Z" fill="white"/>
</g>
<defs>
<filter id="filter0_i_113_13276" x="0" y="-63" width="963" height="964" filterUnits="userSpaceOnUse" color-interpolation-filters="sRGB">
<feFlood flood-opacity="0" result="BackgroundImageFix"/>
<feBlend mode="normal" in="SourceGraphic" in2="BackgroundImageFix" result="shape"/>
<feColorMatrix in="SourceAlpha" type="matrix" values="0 0 0 0 0 0 0 0 0 0 0 0 0 0 0 0 0 0 127 0" result="hardAlpha"/>
<feOffset dy="1"/>
<feGaussianBlur stdDeviation="1"/>
<feComposite in2="hardAlpha" operator="arithmetic" k2="-1" k3="1"/>
<feColorMatrix type="matrix" values="0 0 0 0 0 0 0 0 0 0 0 0 0 0 0 0 0 0 0.25 0"/>
<feBlend mode="normal" in2="shape" result="effect1_innerShadow_113_13276"/>
</filter>
</defs>
</svg>
