<?xml version="1.0" encoding="utf-8"?>
<svg xmlns="http://www.w3.org/2000/svg">
  <defs>
    <symbol id="osnap-logo" viewBox="0 0 173 65" xmlns="http://www.w3.org/2000/svg">
      <path
        d="M26.6875 49.399C24.0136 52.1119 20.5882 53.4684 16.4114 53.4684C12.2346 53.4684 8.83846 52.1217 6.22307 49.4282C3.6272 46.7348 2.32926 43.2313 2.32926 38.9179C2.32926 34.6045 3.65648 31.0815 6.3109 28.349C8.96532 25.597 12.3809 24.221 16.5578 24.221C20.7346 24.221 24.1307 25.597 26.7461 28.349C29.381 31.0815 30.6984 34.6045 30.6984 38.9179C30.6984 43.1728 29.3614 46.6665 26.6875 49.399ZM16.4114 48.4914C18.9682 48.4914 20.9981 47.6521 22.5009 45.9736C24.0038 44.2755 24.7552 41.9822 24.7552 39.0936V38.8593C24.7552 35.8926 24.0136 33.5407 22.5302 31.8036C21.0664 30.0666 19.0756 29.198 16.5578 29.198C14.04 29.198 12.0296 30.0666 10.5267 31.8036C9.02388 33.5407 8.27244 35.8926 8.27244 38.8593V39.0936C8.27244 42.0017 8.9946 44.2951 10.4389 45.9736C11.9028 47.6521 13.8936 48.4914 16.4114 48.4914ZM49.1439 53.6734C39.346 53.6734 33.6468 49.2135 32.0463 40.2939H38.5165C39.102 43.2021 40.2048 45.2807 41.8247 46.5298C43.4642 47.7595 45.8357 48.3743 48.939 48.3743C51.6325 48.3743 53.7209 47.7887 55.2042 46.6177C56.7071 45.4271 57.4585 43.7778 57.4585 41.6699C57.4585 40.9087 57.2633 40.2256 56.873 39.6205C56.5021 39.0155 56.0337 38.5178 55.4677 38.1274C54.9212 37.7371 54.1405 37.376 53.1256 37.0442C52.1106 36.6929 51.1738 36.4196 50.315 36.2244C49.4757 36.0293 48.3632 35.8048 46.9775 35.5511C45.9235 35.3364 44.9769 35.1314 44.1376 34.9363C43.2983 34.7216 42.3908 34.4483 41.4149 34.1165C40.439 33.7652 39.5802 33.4041 38.8385 33.0333C38.1164 32.6429 37.3942 32.1647 36.672 31.5987C35.9499 31.0327 35.3546 30.4179 34.8862 29.7543C34.4373 29.0712 34.0664 28.2807 33.7736 27.3829C33.5004 26.4655 33.3638 25.4701 33.3638 24.3966C33.3638 20.942 34.6715 18.0924 37.2869 15.8478C39.9022 13.6033 43.2495 12.481 47.3288 12.481C51.8764 12.481 55.5263 13.6033 58.2783 15.8478C61.0303 18.0729 62.6991 21.3811 63.2846 25.7726H56.873C56.4631 22.9426 55.4579 20.9029 53.8575 19.6538C52.2765 18.3851 50.0808 17.7508 47.2702 17.7508C44.8305 17.7508 42.8885 18.3266 41.4441 19.4781C40.0193 20.6297 39.3069 22.1716 39.3069 24.1039C39.3069 24.7675 39.4241 25.3725 39.6583 25.919C39.912 26.446 40.2828 26.9047 40.7708 27.295C41.2782 27.6659 41.8247 27.9977 42.4103 28.2904C43.0153 28.5832 43.7375 28.8467 44.5768 29.0809C45.416 29.2956 46.2163 29.4908 46.9775 29.6664C47.7582 29.8226 48.6657 29.9982 49.7002 30.1934C49.9149 30.2325 50.0808 30.2617 50.1979 30.2813C51.7203 30.574 53.028 30.8765 54.121 31.1888C55.214 31.4816 56.385 31.9208 57.6342 32.5063C58.9028 33.0723 59.9275 33.7262 60.7082 34.4678C61.489 35.2095 62.1428 36.1756 62.6698 37.3662C63.1968 38.5373 63.4603 39.8743 63.4603 41.3771C63.4603 45.066 62.1818 48.0425 59.625 50.3065C57.0682 52.5511 53.5745 53.6734 49.1439 53.6734ZM66.7111 53V24.6894H72.5958V30.047C74.1572 26.0849 77.0556 24.1039 81.291 24.1039C84.3748 24.1039 86.7852 25.1188 88.5223 27.1486C90.2594 29.159 91.1279 32.0379 91.1279 35.7853V53H85.1848V36.078C85.1848 31.5694 83.2915 29.3151 79.5051 29.3151C77.2996 29.3151 75.5917 30.1934 74.3816 31.95C73.1911 33.7066 72.5958 36.2049 72.5958 39.4449V53H66.7111ZM103.952 53.7319C100.947 53.7319 98.5654 52.9902 96.8088 51.5069C95.0522 50.004 94.1739 48.023 94.1739 45.5637C94.1739 44.6659 94.2715 43.8559 94.4667 43.1337C94.6618 42.3921 94.9156 41.7577 95.2278 41.2308C95.5597 40.6843 95.9988 40.1866 96.5453 39.7376C97.1113 39.2692 97.6676 38.8886 98.2141 38.5958C98.7606 38.2836 99.4535 37.9908 100.293 37.7175C101.132 37.4248 101.903 37.1906 102.606 37.0149C103.308 36.8392 104.177 36.6343 105.211 36.4001C105.719 36.283 106.353 36.1464 107.114 35.9902C107.895 35.8341 108.48 35.717 108.871 35.6389C109.281 35.5608 109.759 35.4535 110.305 35.3169C110.852 35.1802 111.262 35.0631 111.535 34.9655C111.828 34.8679 112.13 34.7411 112.443 34.5849C112.774 34.4288 113.018 34.2629 113.174 34.0872C113.35 33.9116 113.477 33.7164 113.555 33.5017V33.0918C113.555 31.8427 113.057 30.8473 112.062 30.1056C111.067 29.3444 109.544 28.9638 107.495 28.9638C105.426 28.9638 103.816 29.4127 102.664 30.3105C101.532 31.1888 100.908 32.438 100.79 34.058V34.4093H94.8473C94.9253 31.2669 96.1159 28.7881 98.419 26.973C100.722 25.1383 103.767 24.221 107.553 24.221C111.281 24.221 114.141 25.0798 116.131 26.7973C118.122 28.5149 119.118 31.1303 119.118 34.6435V48.6085L119.176 53H113.497V48.7549C112.56 50.3944 111.252 51.6338 109.573 52.473C107.914 53.3123 106.041 53.7319 103.952 53.7319ZM105.036 49.2233C107.3 49.2233 109.232 48.5987 110.832 47.3496C112.433 46.1005 113.34 44.1877 113.555 41.6114V38.1274C113.145 38.4007 112.608 38.6642 111.945 38.9179C111.301 39.1716 110.745 39.357 110.276 39.4741C109.808 39.5913 109.066 39.7669 108.051 40.0011C107.056 40.2353 106.392 40.3915 106.06 40.4696C105.123 40.7038 104.343 40.938 103.718 41.1722C103.113 41.4064 102.518 41.7089 101.932 42.0798C101.347 42.4506 100.908 42.9093 100.615 43.4558C100.322 43.9828 100.176 44.6073 100.176 45.3295C100.176 46.5201 100.605 47.4667 101.464 48.1693C102.323 48.872 103.513 49.2233 105.036 49.2233ZM123.803 64.1544V24.6894H129.571V28.9052C130.586 27.3829 131.874 26.202 133.435 25.3628C135.016 24.5235 136.782 24.1039 138.734 24.1039C142.443 24.1039 145.487 25.4311 147.869 28.0855C150.269 30.7204 151.47 34.2531 151.47 38.6837V38.7422C151.47 43.2313 150.269 46.8324 147.869 49.5453C145.468 52.2388 142.404 53.5855 138.676 53.5855C136.763 53.5855 135.026 53.1757 133.464 52.3559C131.923 51.5362 130.644 50.3944 129.629 48.9305V64.1544H123.803ZM137.241 48.5499C139.681 48.5499 141.633 47.7009 143.096 46.0029C144.56 44.2853 145.292 41.9236 145.292 38.9179V38.4787C145.292 35.4925 144.57 33.1894 143.126 31.5694C141.681 29.9495 139.72 29.1395 137.241 29.1395C134.801 29.1395 132.859 30.0275 131.415 31.8036C129.99 33.5798 129.278 35.8926 129.278 38.7422V39.2107C129.278 42.0212 129.99 44.2853 131.415 46.0029C132.84 47.7009 134.782 48.5499 137.241 48.5499Z"
        fill="#FF4A4A" />
      <path fill-rule="evenodd" clip-rule="evenodd"
        d="M154.015 4.05347C154.85 4.27715 155.345 5.13524 155.122 5.97006L154.32 8.96286C154.096 9.79767 153.238 10.2931 152.403 10.0694C151.568 9.84571 151.072 8.98763 151.296 8.15281L152.098 5.16001C152.322 4.32519 153.18 3.82978 154.015 4.05347ZM151.609 13.0319C152.444 13.2556 152.939 14.1136 152.716 14.9485L151.914 17.9413C151.69 18.7761 150.832 19.2715 149.997 19.0478C149.162 18.8241 148.666 17.966 148.89 17.1312L149.692 14.1384C149.916 13.3036 150.774 12.8082 151.609 13.0319ZM165.783 11.0981C166.394 11.7093 166.394 12.7001 165.783 13.3112L163.591 15.5021C162.98 16.1132 161.989 16.1132 161.378 15.5021C160.767 14.891 160.767 13.9001 161.378 13.289L163.569 11.0981C164.18 10.487 165.171 10.487 165.783 11.0981ZM159.209 17.6708C159.82 18.2819 159.82 19.2727 159.209 19.8839L157.018 22.0748C156.407 22.6859 155.416 22.6859 154.805 22.0748C154.193 21.4636 154.193 20.4728 154.805 19.8617L156.996 17.6708C157.607 17.0597 158.598 17.0597 159.209 17.6708ZM171.676 24.7384C172.511 24.5147 173.006 23.6566 172.783 22.8218C172.559 21.987 171.701 21.4916 170.866 21.7153L167.873 22.5172C167.038 22.7409 166.542 23.5989 166.766 24.4338C166.99 25.2686 167.848 25.764 168.683 25.5403L171.676 24.7384ZM162.696 27.1441C163.531 26.9205 164.027 26.0624 163.803 25.2276C163.579 24.3927 162.721 23.8973 161.886 24.121L158.893 24.9229C158.058 25.1466 157.563 26.0047 157.786 26.8395C158.01 27.6743 158.868 28.1697 159.703 27.9461L162.696 27.1441Z"
        fill="#FF4A4A" />
    </symbol>
    <symbol
      id="x"
      viewBox="0 0 24 24"
      fill="none"
      stroke="currentcolor"
      stroke-width="2"
      stroke-linecap="round"
      stroke-linejoin="round">
      <path d="M17 7L7 17M7 7L17 17" />
    </symbol>
    <symbol
      id="external-link"
      viewBox="0 0 24 24"
      fill="none"
      stroke="currentcolor"
      stroke-width="2"
      stroke-linecap="round"
      stroke-linejoin="round">
      <path
        d="M21 9L21 3M21 3H15M21 3L13 11M10 5H7.8C6.11984 5 5.27976 5 4.63803 5.32698C4.07354 5.6146 3.6146 6.07354 3.32698 6.63803C3 7.27976 3 8.11984 3 9.8V16.2C3 17.8802 3 18.7202 3.32698 19.362C3.6146 19.9265 4.07354 20.3854 4.63803 20.673C5.27976 21 6.11984 21 7.8 21H14.2C15.8802 21 16.7202 21 17.362 20.673C17.9265 20.3854 18.3854 19.9265 18.673 19.362C19 18.7202 19 17.8802 19 16.2V14" />
    </symbol>
    <symbol
      id="info"
      viewBox="0 0 22 22"
      fill="none"
      stroke="currentcolor"
      stroke-width="2"
      stroke-linecap="round"
      stroke-linejoin="round">
      <path
        d="M11 15V11M11 7H11.01M21 11C21 16.5228 16.5228 21 11 21C5.47715 21 1 16.5228 1 11C1 5.47715 5.47715 1 11 1C16.5228 1 21 5.47715 21 11Z" />
    </symbol>
  </defs>
</svg>